<svg width="114" height="54" viewBox="0 0 114 54" fill="none" xmlns="http://www.w3.org/2000/svg">
<path d="M60.688 26.36C61.664 26.568 62.448 27.056 63.04 27.824C63.632 28.576 63.928 29.44 63.928 30.416C63.928 31.824 63.432 32.944 62.44 33.776C61.464 34.592 60.096 35 58.336 35H50.488V18.152H58.072C59.784 18.152 61.12 18.544 62.08 19.328C63.056 20.112 63.544 21.176 63.544 22.52C63.544 23.512 63.28 24.336 62.752 24.992C62.24 25.648 61.552 26.104 60.688 26.36ZM54.592 24.968H57.28C57.952 24.968 58.464 24.824 58.816 24.536C59.184 24.232 59.368 23.792 59.368 23.216C59.368 22.64 59.184 22.2 58.816 21.896C58.464 21.592 57.952 21.44 57.28 21.44H54.592V24.968ZM57.616 31.688C58.304 31.688 58.832 31.536 59.2 31.232C59.584 30.912 59.776 30.456 59.776 29.864C59.776 29.272 59.576 28.808 59.176 28.472C58.792 28.136 58.256 27.968 57.568 27.968H54.592V31.688H57.616ZM70.4123 31.832H75.7883V35H66.3083V18.152H70.4123V31.832ZM85.7138 35.168C84.1298 35.168 82.6738 34.8 81.3458 34.064C80.0338 33.328 78.9858 32.304 78.2018 30.992C77.4338 29.664 77.0498 28.176 77.0498 26.528C77.0498 24.88 77.4338 23.4 78.2018 22.088C78.9858 20.776 80.0338 19.752 81.3458 19.016C82.6738 18.28 84.1298 17.912 85.7138 17.912C87.2978 17.912 88.7458 18.28 90.0578 19.016C91.3858 19.752 92.4258 20.776 93.1778 22.088C93.9458 23.4 94.3298 24.88 94.3298 26.528C94.3298 28.176 93.9458 29.664 93.1778 30.992C92.4098 32.304 91.3698 33.328 90.0578 34.064C88.7458 34.8 87.2978 35.168 85.7138 35.168ZM85.7138 31.424C87.0578 31.424 88.1298 30.976 88.9298 30.08C89.7458 29.184 90.1538 28 90.1538 26.528C90.1538 25.04 89.7458 23.856 88.9298 22.976C88.1298 22.08 87.0578 21.632 85.7138 21.632C84.3538 21.632 83.2658 22.072 82.4498 22.952C81.6498 23.832 81.2498 25.024 81.2498 26.528C81.2498 28.016 81.6498 29.208 82.4498 30.104C83.2658 30.984 84.3538 31.424 85.7138 31.424ZM107.797 23.48C107.493 22.92 107.053 22.496 106.477 22.208C105.917 21.904 105.253 21.752 104.485 21.752C103.157 21.752 102.093 22.192 101.293 23.072C100.493 23.936 100.093 25.096 100.093 26.552C100.093 28.104 100.509 29.32 101.341 30.2C102.189 31.064 103.349 31.496 104.821 31.496C105.829 31.496 106.677 31.24 107.365 30.728C108.069 30.216 108.581 29.48 108.901 28.52H103.693V25.496H112.621V29.312C112.317 30.336 111.797 31.288 111.061 32.168C110.341 33.048 109.421 33.76 108.301 34.304C107.181 34.848 105.917 35.12 104.509 35.12C102.845 35.12 101.357 34.76 100.045 34.04C98.749 33.304 97.733 32.288 96.997 30.992C96.277 29.696 95.917 28.216 95.917 26.552C95.917 24.888 96.277 23.408 96.997 22.112C97.733 20.8 98.749 19.784 100.045 19.064C101.341 18.328 102.821 17.96 104.485 17.96C106.501 17.96 108.197 18.448 109.573 19.424C110.965 20.4 111.885 21.752 112.333 23.48H107.797Z" fill="#EE5626"/>
<circle cx="20" cy="27" r="19" stroke="url(#paint0_linear_201_185)" stroke-width="2"/>
<path d="M25.008 22.72C24.552 21.88 23.892 21.244 23.028 20.812C22.188 20.356 21.192 20.128 20.04 20.128C18.048 20.128 16.452 20.788 15.252 22.108C14.052 23.404 13.452 25.144 13.452 27.328C13.452 29.656 14.076 31.48 15.324 32.8C16.596 34.096 18.336 34.744 20.544 34.744C22.056 34.744 23.328 34.36 24.36 33.592C25.416 32.824 26.184 31.72 26.664 30.28H18.852V25.744H32.244V31.468C31.788 33.004 31.008 34.432 29.904 35.752C28.824 37.072 27.444 38.14 25.764 38.956C24.084 39.772 22.188 40.18 20.076 40.18C17.58 40.18 15.348 39.64 13.38 38.56C11.436 37.456 9.912 35.932 8.808 33.988C7.728 32.044 7.188 29.824 7.188 27.328C7.188 24.832 7.728 22.612 8.808 20.668C9.912 18.7 11.436 17.176 13.38 16.096C15.324 14.992 17.544 14.44 20.04 14.44C23.064 14.44 25.608 15.172 27.672 16.636C29.76 18.1 31.14 20.128 31.812 22.72H25.008Z" fill="#F5F5F5"/>
<defs>
<linearGradient id="paint0_linear_201_185" x1="20" y1="7" x2="20" y2="47" gradientUnits="userSpaceOnUse">
<stop offset="0.505208" stop-color="#EE5626"/>
<stop offset="0.895833" stop-color="#35109F"/>
</linearGradient>
</defs>
</svg>
